Coordinates
version=1
nRows=33
nColumns=33
inDegrees=yes

Units are S.I. units (second, meters, Newtons, ...)
Angles are in degrees.

endheader
time	ground_thorax_rot_x	ground_thorax_rot_y	ground_thorax_rot_z	ground_thorax_tx	ground_thorax_ty	ground_thorax_tz	clav_prot_r	clav_elev_r	scapula_abduction_r	scapula_elevation_r	scapula_upward_rot_r	scapula_winging_r	shoulder_elv_r	plane_of_elev_r	axial_rot_r	elbow_flexion_r	pro_sup_r	wrist_flex_r	wrist_dev_r	clav_prot_l	clav_elev_l	scapula_abduction_l	scapula_elevation_l	scapula_upward_rot_l	scapula_winging_l	shoulder_elv_l	plane_of_elev_l	axial_rot_l	elbow_flexion_l	pro_sup_l	wrist_flex_l	wrist_dev_l	
0.3400	1.377726	-1.391912	-12.188271	-0.044648	1.050846	-0.002790	-12.552916	-9.418367	-12.753898	-2.581725	4.597511	1.422636	52.546340	-45.165964	57.387234	58.821895	-2.782675	14.233658	7.100102	-7.366820	-6.542210	7.300122	-3.220709	-6.855844	-2.445132	54.862488	-49.583005	-39.591691	60.786148	-0.028501	5.468788	-21.006913	
0.3500	1.397218	-1.169666	-12.261631	-0.044695	1.050322	-0.002681	-12.693251	-8.920065	-12.746128	-2.374243	5.299600	1.092819	51.326641	-45.261541	56.677654	58.561857	-2.395264	14.420371	7.387095	-7.080616	-6.114081	6.577543	-3.305359	-6.014439	-2.046897	53.611289	-49.789725	-38.824546	60.714635	0.526076	6.043506	-21.254069	
0.3600	1.413409	-0.941239	-12.336053	-0.044739	1.049738	-0.002572	-12.841525	-8.400139	-12.739330	-2.159351	6.036152	0.748593	50.051134	-45.367390	55.929406	58.301105	-1.987450	14.612274	7.674952	-6.784802	-5.666909	5.827794	-3.392418	-5.132551	-1.633448	52.301477	-50.007424	-38.001398	60.651129	1.105207	6.624294	-21.513160	
0.3700	1.418719	-0.808568	-12.380867	-0.044674	1.049445	-0.002489	-12.924615	-8.128400	-12.738804	-2.051868	6.434805	0.566448	49.355213	-45.439731	55.510334	58.198061	-1.760096	14.707109	7.795340	-6.639168	-5.424032	5.451941	-3.444040	-4.666370	-1.417129	51.580154	-50.146181	-37.500706	60.648234	1.415485	6.879964	-21.654494	
0.3800	1.420185	-0.727163	-12.410011	-0.044563	1.049300	-0.002422	-12.967866	-7.988893	-12.732844	-2.001330	6.653240	0.469920	48.970161	-45.490367	55.268796	58.178406	-1.623417	14.744614	7.819224	-6.569545	-5.294894	5.267637	-3.472803	-4.422650	-1.306107	51.173523	-50.235219	-37.171891	60.669023	1.588718	6.944925	-21.733172	
0.3900	1.418688	-0.691120	-12.426803	-0.044415	1.049273	-0.002365	-12.975709	-7.960197	-12.718324	-1.998613	6.721609	0.444671	48.845930	-45.522307	55.175380	58.230027	-1.558323	14.730553	7.755977	-6.561593	-5.263023	5.240316	-3.481203	-4.366407	-1.283566	51.029065	-50.280298	-36.983553	60.707198	1.651518	6.836460	-21.760175	
0.4000	1.419908	-0.685800	-12.448524	-0.044272	1.049299	-0.002310	-12.952936	-7.988256	-12.673834	-2.022585	6.721233	0.452024	48.849315	-45.541618	55.149122	58.326321	-1.504658	14.668331	7.610221	-6.573337	-5.289815	5.272551	-3.473613	-4.412164	-1.305184	50.999779	-50.294722	-36.838272	60.739760	1.683513	6.561020	-21.764369	
0.4100	1.424685	-0.690420	-12.476121	-0.044155	1.049314	-0.002254	-12.915948	-8.020931	-12.603965	-2.049877	6.720603	0.459011	48.861693	-45.556409	55.124557	58.434627	-1.427034	14.583369	7.423912	-6.575937	-5.330688	5.291062	-3.459069	-4.472723	-1.330367	50.968635	-50.296892	-36.676092	60.757853	1.738111	6.198031	-21.771543	
0.4200	1.433536	-0.704268	-12.504568	-0.044067	1.049322	-0.002194	-12.867169	-8.054542	-12.512862	-2.077959	6.721275	0.464161	48.882926	-45.565173	55.104991	58.551244	-1.321519	14.482508	7.206953	-6.567897	-5.380511	5.293633	-3.441787	-4.547144	-1.356536	50.938113	-50.290326	-36.510878	60.759128	1.820955	5.759153	-21.786603	
0.4300	1.442761	-0.718695	-12.518402	-0.043993	1.049312	-0.002130	-12.820214	-8.079699	-12.425132	-2.099510	6.724785	0.465821	48.905494	-45.569065	55.095085	58.661609	-1.201154	14.392938	7.005126	-6.553898	-5.424016	5.285578	-3.429157	-4.618246	-1.378285	50.915943	-50.283284	-36.374255	60.750808	1.922052	5.329062	-21.813856	
0.4400	1.454352	-0.730521	-12.505901	-0.043949	1.049288	-0.002056	-12.773115	-8.085264	-12.339531	-2.104442	6.730882	0.459316	48.930648	-45.568905	55.108446	58.770946	-1.032669	14.319954	6.816238	-6.527066	-5.456967	5.257300	-3.427247	-4.691675	-1.392984	50.907380	-50.277952	-36.286678	60.722342	2.076411	4.870016	-21.873083	
0.4500	1.466244	-0.730782	-12.462559	-0.043921	1.049250	-0.001976	-12.735400	-8.067696	-12.273723	-2.089537	6.738579	0.445053	48.951481	-45.561647	55.147982	58.859438	-0.838516	14.284237	6.682552	-6.491819	-5.471294	5.212289	-3.437045	-4.750329	-1.396674	50.918692	-50.274532	-36.273970	60.675745	2.264011	4.472281	-21.959980	
0.4600	1.476073	-0.723769	-12.402734	-0.043914	1.049206	-0.001885	-12.704342	-8.035588	-12.221031	-2.062581	6.748443	0.425545	48.967460	-45.541123	55.211123	58.930432	-0.616877	14.282202	6.595495	-6.448148	-5.472054	5.150099	-3.454465	-4.795672	-1.390869	50.950216	-50.269619	-36.324295	60.608739	2.483144	4.128250	-22.071954	
0.4700	1.481216	-0.713397	-12.346970	-0.043897	1.049159	-0.001792	-12.683334	-8.004792	-12.184647	-2.037821	6.760112	0.407692	48.977303	-45.506970	55.281247	58.976393	-0.403997	14.308778	6.556425	-6.405998	-5.465376	5.085202	-3.471351	-4.821507	-1.379557	50.994863	-50.260393	-36.409794	60.534693	2.692506	3.885831	-22.187080	
0.4800	1.482944	-0.707352	-12.309334	-0.043881	1.049121	-0.001697	-12.665825	-7.986469	-12.150593	-2.025314	6.774527	0.394424	48.988642	-45.461277	55.353570	59.015236	-0.168489	14.347347	6.520291	-6.365844	-5.462815	5.021414	-3.482656	-4.842639	-1.368919	51.046840	-50.243384	-36.494592	60.454148	2.913017	3.663799	-22.314213	
0.4900	1.481385	-0.704778	-12.296924	-0.043833	1.049094	-0.001611	-12.658586	-7.988750	-12.129294	-2.032605	6.791453	0.390324	49.002307	-45.408964	55.416163	59.036854	0.064666	14.399171	6.494101	-6.337613	-5.465781	4.973954	-3.484446	-4.852671	-1.361664	51.100098	-50.218693	-36.563547	60.380713	3.115166	3.510035	-22.441273	
0.5000	1.476478	-0.703382	-12.310380	-0.043763	1.049098	-0.001527	-12.669447	-8.016461	-12.130980	-2.065973	6.815543	0.397173	49.027331	-45.340144	55.490144	59.038928	0.398237	14.493553	6.470350	-6.320045	-5.476287	4.941047	-3.475879	-4.854199	-1.358006	51.170495	-50.177055	-36.637889	60.294836	3.378735	3.391752	-22.627662	
0.5100	1.470609	-0.702021	-12.339822	-0.043656	1.049121	-0.001451	-12.696674	-8.060688	-12.155718	-2.116426	6.844134	0.412188	49.063496	-45.266549	55.571767	59.023984	0.806386	14.621655	6.449018	-6.313088	-5.491071	4.924167	-3.460912	-4.849798	-1.357914	51.250510	-50.125139	-36.715544	60.205358	3.686579	3.304904	-22.860269	
0.5200	1.466679	-0.700971	-12.370009	-0.043547	1.049159	-0.001372	-12.732594	-8.106907	-12.192873	-2.170573	6.877197	0.428358	49.113093	-45.191373	55.671566	59.002866	1.300658	14.779178	6.423443	-6.306561	-5.505194	4.908552	-3.446988	-4.846660	-1.357799	51.342814	-50.067646	-36.812070	60.105503	4.059448	3.200186	-23.145606	
0.5300	1.465358	-0.702833	-12.394228	-0.043430	1.049188	-0.001299	-12.764302	-8.143414	-12.225722	-2.215089	6.908060	0.440892	49.165983	-45.129709	55.768629	58.983321	1.756072	14.931058	6.401789	-6.298417	-5.514791	4.891315	-3.437641	-4.844569	-1.356265	51.427476	-50.018447	-36.907775	60.018701	4.404634	3.102430	-23.412740	
0.5400	1.464813	-0.712685	-12.418530	-0.043341	1.049208	-0.001225	-12.783514	-8.171462	-12.238879	-2.251233	6.938182	0.448153	49.223136	-45.072726	55.870190	58.969778	2.167278	15.081159	6.387352	-6.280891	-5.520009	4.858438	-3.432829	-4.843282	-1.350005	51.508648	-49.975898	-37.011772	59.941501	4.720546	3.012096	-23.659064	
0.5500	1.467103	-0.729702	-12.432440	-0.043272	1.049201	-0.001160	-12.782331	-8.180945	-12.223087	-2.267869	6.962567	0.446321	49.279284	-45.035507	55.961831	58.969212	2.443853	15.210213	6.386599	-6.254578	-5.518087	4.811630	-3.435168	-4.843027	-1.339045	51.570576	-49.952533	-37.108768	59.892712	4.941129	2.943014	-23.836516	
0.5600	1.473387	-0.752696	-12.434261	-0.043228	1.049170	-0.001098	-12.763872	-8.173179	-12.182108	-2.267214	6.983827	0.435644	49.340505	-45.016266	56.050470	58.981501	2.615990	15.333087	6.398476	-6.220490	-5.509595	4.752044	-3.443591	-4.842515	-1.323463	51.619819	-49.946260	-37.203222	59.867885	5.090167	2.884669	-23.964233	
0.5700	1.488307	-0.774799	-12.407467	-0.043194	1.049110	-0.001048	-12.733385	-8.142229	-12.125447	-2.244574	7.003296	0.414314	49.423071	-45.027566	56.155814	59.013072	2.730040	15.497900	6.425755	-6.182382	-5.495256	4.687283	-3.458414	-4.844523	-1.305749	51.660805	-49.964457	-37.307510	59.863975	5.209180	2.807605	-24.086016	
0.5800	1.509312	-0.795154	-12.364747	-0.043157	1.049040	-0.001002	-12.702449	-8.101391	-12.067921	-2.214253	7.026443	0.387988	49.533015	-45.052761	56.292654	59.059219	2.887672	15.728537	6.460480	-6.142890	-5.480345	4.620947	-3.474666	-4.848892	-1.287831	51.709540	-49.992916	-37.433656	59.864308	5.373307	2.690707	-24.251342	
0.5900	1.535452	-0.813780	-12.315878	-0.043102	1.048960	-0.000968	-12.676443	-8.057204	-12.016462	-2.183105	7.055656	0.359681	49.672111	-45.086863	56.457570	59.125417	3.094109	16.030734	6.500629	-6.107555	-5.469464	4.561805	-3.487717	-4.854787	-1.272760	51.765354	-50.028520	-37.570915	59.877338	5.587787	2.520884	-24.451977	
0.6000	1.560705	-0.833819	-12.281633	-0.043019	1.048886	-0.000938	-12.658755	-8.021968	-11.974882	-2.162248	7.090601	0.335015	49.825676	-45.114443	56.629488	59.209901	3.324787	16.358977	6.539143	-6.080080	-5.465922	4.514309	-3.492766	-4.857753	-1.261767	51.826484	-50.060912	-37.697399	59.910405	5.828411	2.315089	-24.640117	
0.6100	1.588027	-0.857854	-12.262373	-0.042909	1.048814	-0.000917	-12.653816	-7.999579	-11.946429	-2.157779	7.138634	0.314392	50.023955	-45.137494	56.840128	59.332907	3.630272	16.777214	6.581276	-6.063407	-5.475785	4.483656	-3.485360	-4.860736	-1.258050	51.900768	-50.096060	-37.821856	59.977342	6.147563	2.016180	-24.809196	
0.6200	1.609737	-0.886759	-12.274226	-0.042780	1.048752	-0.000899	-12.658961	-7.995926	-11.927404	-2.173589	7.195810	0.300625	50.251603	-45.141709	57.073441	59.502125	3.980500	17.223604	6.619601	-6.054677	-5.496783	4.463114	-3.465426	-4.857834	-1.258698	51.990830	-50.126715	-37.936868	60.089005	6.519842	1.657497	-24.919836	
0.6300	1.625012	-0.920452	-12.314538	-0.042650	1.048680	-0.000883	-12.673040	-8.003369	-11.915802	-2.203656	7.264835	0.289865	50.516274	-45.129050	57.336092	59.739991	4.376084	17.695650	6.653815	-6.051421	-5.521876	4.448236	-3.438084	-4.845397	-1.260145	52.102912	-50.157647	-38.050766	60.261331	6.949758	1.243396	-24.980559	
0.6400	1.632892	-0.951918	-12.370704	-0.042520	1.048610	-0.000866	-12.694921	-8.018913	-11.915880	-2.241483	7.334356	0.283606	50.825123	-45.105212	57.630479	60.062903	4.801257	18.119274	6.675789	-6.050957	-5.546453	4.433779	-3.406090	-4.819443	-1.259903	52.246929	-50.198836	-38.174814	60.501346	7.436831	0.811263	-24.993933	
0.6500	1.638256	-0.980144	-12.422111	-0.042406	1.048516	-0.000853	-12.719587	-8.021739	-11.919108	-2.270586	7.411656	0.271017	51.193377	-45.085317	57.977775	60.489732	5.260570	18.531326	6.694665	-6.048768	-5.557874	4.413918	-3.381093	-4.780016	-1.252865	52.425319	-50.262203	-38.325426	60.818374	7.982675	0.361993	-25.000000	
0.6600	1.637973	-1.003095	-12.469714	-0.042316	1.048399	-0.000848	-12.738886	-8.001957	-11.913927	-2.281230	7.495297	0.247547	51.594802	-45.065654	58.352763	61.015749	5.686880	18.860297	6.708456	-6.039264	-5.543655	4.379082	-3.372564	-4.721776	-1.233043	52.630740	-50.343318	-38.494127	61.215528	8.516931	-0.031086	-25.000000	
